<svg xmlns="http://www.w3.org/2000/svg" width="40" height="40" viewBox="0 0 40 40">
    <g  >
        <path
              d="M373.442 1126h-28.888a3.285 3.285 0 0 0-3.556 3.567v28.888a3.283 3.283 0 0 0 3.529 3.544h28.939a3.281 3.281 0 0 0 3.53-3.542v-28.888a3.282 3.282 0 0 0-3.554-3.569zm-27.561 31.089a1.635 1.635 0 1 1 1.661-1.635 1.635 1.635 0 0 1-1.661 1.635zm-.006-6.546a1.635 1.635 0 1 1 1.666-1.63 1.635 1.635 0 0 1-1.666 1.63zm6.525 6.545a1.636 1.636 0 1 1 1.686-1.609 1.636 1.636 0 0 1-1.686 1.609zm0-6.546a1.635 1.635 0 1 1 1.689-1.607 1.636 1.636 0 0 1-1.689 1.607zm.055-6.545a1.635 1.635 0 1 1 1.633-1.662 1.635 1.635 0 0 1-1.633 1.662zm6.534 13.091a1.635 1.635 0 1 1 1.645-1.65 1.635 1.635 0 0 1-1.645 1.65zm.063-9.815a1.635 1.635 0 1 1-1.688 1.605 1.635 1.635 0 0 1 1.688-1.605zm-1.687-4.962a1.636 1.636 0 1 1 .451 1.179 1.635 1.635 0 0 1-.451-1.179zm8.232 4.962a1.635 1.635 0 1 1-1.687 1.605 1.635 1.635 0 0 1 1.688-1.605zm-1.687-4.9a1.635 1.635 0 1 1 1.625 1.62 1.635 1.635 0 0 1-1.625-1.62zm1.617 14.711a1.644 1.644 0 1 1 1.167-.477 1.635 1.635 0 0 1-1.167.477zm6.51-6.546a1.635 1.635 0 1 1 1.688-1.607 1.635 1.635 0 0 1-1.688 1.607zm0-6.546a1.635 1.635 0 1 1 1.687-1.609 1.636 1.636 0 0 1-1.687 1.609zm1.7-8.588c0 .336-.088.417-.419.417q-14.317-.014-28.634 0c-.333 0-.421-.084-.417-.417.016-1.892.02-3.784 0-5.676 0-.385.092-.47.472-.469 4.773.015 9.544.01 14.317.01 4.721 0 9.443.006 14.163-.01.425 0 .529.1.523.523-.029 1.875-.023 3.75-.006 5.625z"
              transform="translate(-338.997 -1124)"/>
    </g>
</svg>