<svg xmlns="http://www.w3.org/2000/svg" width="40" height="40" viewBox="0 0 40 40">
    <g id="a" transform="rotate(90 20 20)">
        <g id="Group_1261" transform="translate(2 11.003)">
            <path id="Path_31045" d="M1628.98 803.111a1.4 1.4 0 0 0 .529 1.1l10.854 10c2.074 1.91 4.156 3.811 6.213 5.738.33.31.494.28.809-.011q8.5-7.86 17.021-15.7c.655-.6.754-1.281.273-1.835a1.228 1.228 0 0 0-1.893.067q-7.7 7.089-15.389 14.193c-.344.319-.515.3-.845-.008q-7.659-7.09-15.341-14.155a1.29 1.29 0 0 0-1.509-.4 1.16 1.16 0 0 0-.722 1.011z" transform="translate(-1628.98 -801.995)"/>
        </g>
    </g>
</svg>