<svg xmlns="http://www.w3.org/2000/svg" width="40" height="40" viewBox="0 0 40 40">
    <g id="a" transform="rotate(90 20 20)">
        <g id="Group_1262" transform="translate(2 10.818)">
            <path id="Path_31046" d="M0 17.062a1.4 1.4 0 0 1 .529-1.1l10.854-10C13.457 4.048 15.539 2.148 17.6.22c.33-.31.494-.28.809.011q8.5 7.86 17.021 15.7c.655.6.754 1.281.273 1.835a1.228 1.228 0 0 1-1.893-.067Q26.106 10.608 18.417 3.5c-.344-.319-.515-.3-.845.008Q9.912 10.6 2.23 17.667a1.29 1.29 0 0 1-1.509.4A1.16 1.16 0 0 1 0 17.062z"/>
        </g>
    </g>
</svg>